<?xml version="1.0" standalone="no"?>
<!DOCTYPE svg PUBLIC "-//W3C//DTD SVG 20010904//EN"
 "http://www.w3.org/TR/2001/REC-SVG-20010904/DTD/svg10.dtd">
<svg version="1.0" xmlns="http://www.w3.org/2000/svg"
 width="700.000000pt" height="700.000000pt" viewBox="0 0 700.000000 700.000000"
 preserveAspectRatio="xMidYMid meet">
<metadata>
Created by potrace 1.11, written by Peter Selinger 2001-2013
</metadata>
<g transform="translate(0.000000,700.000000) scale(0.100000,-0.100000)"
fill="#000000" stroke="none">
<path d="M5218 6935 c-2 -2 -35 -6 -74 -9 -39 -4 -80 -8 -90 -11 -197 -41
-321 -82 -478 -159 -113 -56 -310 -181 -396 -252 -55 -46 -1331 -1317 -1326
-1321 2 -2 15 1 30 7 30 11 212 49 266 56 19 2 51 6 70 10 46 8 227 7 299 -2
146 -17 312 -71 394 -127 l29 -20 376 376 c208 207 403 396 434 421 74 57 213
128 308 157 63 20 97 24 210 24 116 0 145 -3 205 -24 64 -21 193 -84 205 -100
3 -3 19 -15 35 -25 58 -37 187 -172 241 -252 55 -83 106 -192 117 -254 4 -19
9 -46 12 -60 6 -31 6 -166 0 -200 -2 -14 -7 -41 -11 -60 -14 -81 -78 -222
-147 -325 -43 -65 -1637 -1670 -1743 -1755 -282 -227 -610 -235 -939 -23 -176
114 -333 321 -394 517 -11 37 -21 85 -21 105 0 21 -3 41 -7 45 -4 4 -152 -138
-329 -315 l-322 -322 35 -66 c55 -103 176 -280 252 -368 59 -67 117 -123 261
-247 77 -67 292 -194 405 -241 54 -23 183 -64 220 -71 17 -3 64 -12 105 -19
113 -21 358 -14 490 15 144 30 283 79 425 149 99 49 236 129 280 163 6 5 51
40 100 78 122 95 1712 1688 1791 1795 229 307 359 619 392 937 12 114 6 290
-13 358 -2 8 -6 31 -9 50 -31 204 -181 497 -366 715 -46 54 -214 220 -275 271
-154 130 -367 252 -540 308 -89 29 -96 31 -210 52 -66 12 -289 26 -297 19z"/>
<path d="M3106 4974 c-240 -37 -477 -131 -706 -277 -52 -34 -97 -64 -100 -67
-3 -3 -32 -25 -65 -49 -33 -24 -439 -422 -901 -885 -609 -609 -860 -866 -908
-931 -36 -49 -69 -95 -74 -100 -22 -26 -115 -192 -153 -272 -65 -137 -129
-335 -144 -448 -39 -286 -15 -514 80 -748 151 -376 492 -749 875 -960 121 -66
319 -136 431 -151 24 -3 58 -9 74 -12 43 -8 261 -8 320 0 28 4 66 9 85 12 59
9 221 53 295 81 76 28 238 106 301 143 51 30 178 113 184 120 3 3 19 16 37 28
17 12 48 36 70 54 51 43 1313 1301 1309 1305 -2 2 -16 -1 -31 -7 -42 -16 -262
-58 -340 -65 -273 -23 -511 20 -679 123 l-39 24 -391 -390 c-391 -389 -446
-437 -581 -504 -123 -62 -187 -78 -332 -85 -217 -11 -398 70 -588 261 -257
259 -325 570 -189 864 13 29 24 55 24 58 0 8 108 173 123 189 157 168 1671
1671 1717 1705 149 110 281 155 455 153 164 -1 293 -43 455 -147 214 -138 407
-424 421 -622 1 -21 5 -43 7 -47 5 -11 642 624 642 641 0 38 -184 320 -284
434 -248 281 -591 495 -896 557 -30 6 -66 14 -80 17 -56 13 -337 12 -424 -2z"/>
</g>
</svg>
